<svg height="512pt" viewBox="0 0 512 512" width="512pt" xmlns="http://www.w3.org/2000/svg"><path d="m486.398438 0h-460.796876c-14.132812.015625-25.585937 11.46875-25.601562 25.601562v110.933594c.015625 14.128906 11.46875 25.582032 25.601562 25.597656h162.132813c4.710937 0 8.53125-3.820312 8.53125-8.53125 0-4.714843-3.820313-8.535156-8.53125-8.535156h-162.132813c-4.710937-.003906-8.527343-3.824218-8.535156-8.53125v-110.933594c.007813-4.710937 3.824219-8.527343 8.535156-8.535156h460.796876c4.710937.007813 8.527343 3.824219 8.535156 8.535156v110.933594c-.007813 4.707032-3.824219 8.527344-8.535156 8.53125h-162.132813c-4.710937 0-8.53125 3.820313-8.53125 8.535156 0 4.710938 3.820313 8.53125 8.53125 8.53125h162.132813c14.132812-.015624 25.585937-11.46875 25.601562-25.597656v-110.933594c-.015625-14.132812-11.46875-25.585937-25.601562-25.601562zm0 0"/><path d="m76.800781 119.464844c0 4.714844 3.820313 8.535156 8.53125 8.535156h51.203125c4.710938 0 8.53125-3.820312 8.53125-8.535156 0-4.710938-3.820312-8.53125-8.53125-8.53125h-51.203125c-4.710937 0-8.53125 3.820312-8.53125 8.53125zm0 0"/><path d="m179.742188 39.671875-25.601563 68.265625c-1.070313 2.855469-.535156 6.0625 1.402344 8.417969s4.984375 3.496093 7.992187 2.996093c3.007813-.5 5.519532-2.566406 6.589844-5.421874l25.601562-68.265626c1.652344-4.414062-.582031-9.335937-4.996093-10.988281-4.414063-1.65625-9.332031.582031-10.988281 4.996094zm0 0"/><path d="m196.265625 119.464844c0 4.714844 3.820313 8.535156 8.535156 8.535156h51.199219c4.710938 0 8.535156-3.820312 8.535156-8.535156 0-4.710938-3.824218-8.53125-8.535156-8.53125h-51.199219c-4.714843 0-8.535156 3.820312-8.535156 8.53125zm0 0"/><path d="m281.601562 119.472656c3.554688-.003906 6.738282-2.210937 7.988282-5.542968l25.601562-68.265626c1.65625-4.414062-.582031-9.335937-4.996094-10.988281-4.414062-1.65625-9.332031.582031-10.988281 4.996094l-25.597656 68.265625c-.980469 2.621094-.613281 5.554688.980469 7.855469s4.210937 3.675781 7.011718 3.679687zm0 0"/><path d="m315.734375 119.464844c0 4.714844 3.820313 8.535156 8.53125 8.535156h51.199219c4.714844 0 8.535156-3.820312 8.535156-8.535156 0-4.710938-3.820312-8.53125-8.535156-8.53125h-51.199219c-4.710937 0-8.53125 3.820312-8.53125 8.53125zm0 0"/><path d="m401.066406 119.472656c3.558594-.003906 6.742188-2.210937 7.992188-5.542968l25.597656-68.265626c1.65625-4.414062-.578125-9.335937-4.992188-10.988281-4.414062-1.65625-9.335937.582031-10.988281 4.996094l-25.601562 68.265625c-.980469 2.621094-.613281 5.554688.980469 7.855469s4.214843 3.675781 7.011718 3.679687zm0 0"/><path d="m110.933594 102.398438c14.132812-.015626 25.585937-11.464844 25.601562-25.597657v-17.066406c-.015625-14.132813-11.46875-25.585937-25.601562-25.601563h-17.066406c-4.714844 0-8.535157 3.820313-8.535157 8.535157v51.199219c0 4.710937 3.820313 8.53125 8.535157 8.53125zm-8.535156-51.199219h8.535156c4.710937.007812 8.527344 3.824219 8.53125 8.535156v17.066406c-.003906 4.710938-3.820313 8.527344-8.53125 8.53125h-8.535156zm0 0"/><path d="m247.464844 102.398438c4.714844 0 8.535156-3.820313 8.535156-8.53125v-51.199219c0-3.960938-2.71875-7.398438-6.574219-8.308594-3.851562-.910156-7.824219.949219-9.59375 4.492187l-9.433593 18.871094-9.433594-18.871094c-1.769532-3.542968-5.738282-5.402343-9.59375-4.492187-3.851563.910156-6.570313 4.347656-6.570313 8.308594v51.199219c0 4.710937 3.820313 8.53125 8.53125 8.53125 4.714844 0 8.535157-3.820313 8.535157-8.53125v-15.054688l.898437 1.804688c1.605469 2.691406 4.503906 4.335937 7.632813 4.335937 3.132812 0 6.03125-1.644531 7.632812-4.335937l.902344-1.804688v15.054688c0 4.710937 3.820312 8.53125 8.53125 8.53125zm0 0"/><path d="m349.867188 102.398438c4.710937 0 8.53125-3.820313 8.53125-8.53125v-15.050782l16.167968-32.332031c2.109375-4.214844.398438-9.34375-3.816406-11.449219-4.214844-2.109375-9.339844-.402344-11.449219 3.816406l-9.433593 18.871094-9.433594-18.871094c-2.109375-4.21875-7.234375-5.925781-11.449219-3.816406-4.21875 2.105469-5.925781 7.234375-3.816406 11.449219l16.164062 32.332031v15.050782c0 4.710937 3.820313 8.53125 8.535157 8.53125zm0 0"/><path d="m486.398438 204.800781h-176.617188l-44.320312-29.550781c-5.726563-3.828125-13.199219-3.824219-18.929688.003906l-44.3125 29.546875h-176.617188c-14.132812.015625-25.585937 11.46875-25.601562 25.597657v256c.015625 14.132812 11.46875 25.585937 25.601562 25.601562h460.796876c14.132812-.015625 25.585937-11.46875 25.601562-25.601562v-256c-.015625-14.128907-11.46875-25.582032-25.601562-25.597657zm-469.332032 25.597657c.007813-4.707032 3.824219-8.527344 8.535156-8.53125h176.617188c3.367188.003906 6.664062-.996094 9.464844-2.867188l44.316406-29.546875 44.316406 29.546875c2.800782 1.871094 6.097656 2.871094 9.464844 2.867188h176.617188c4.710937.003906 8.527343 3.824218 8.535156 8.53125v93.867187h-477.867188zm477.867188 256c-.007813 4.710937-3.824219 8.527343-8.535156 8.535156h-460.796876c-4.710937-.007813-8.527343-3.824219-8.535156-8.535156v-145.066407h477.867188zm0 0"/><path d="m83.625 242.347656c-2.828125-3.769531-8.175781-4.53125-11.945312-1.707031l-34.132813 25.597656c-2.148437 1.613281-3.414063 4.140625-3.414063 6.828125s1.265626 5.214844 3.414063 6.828125l34.132813 25.597657c3.769531 2.828124 9.121093 2.066406 11.945312-1.707032 2.828125-3.769531 2.066406-9.117187-1.703125-11.945312l-25.035156-18.773438 25.035156-18.773437c1.808594-1.359375 3.003906-3.378907 3.324219-5.621094.320312-2.238281-.261719-4.515625-1.621094-6.324219zm0 0"/><path d="m440.320312 240.640625c-3.769531-2.828125-9.121093-2.0625-11.945312 1.707031-2.828125 3.769532-2.066406 9.117188 1.703125 11.945313l25.035156 18.773437-25.035156 18.773438c-2.4375 1.828125-3.714844 4.820312-3.351563 7.847656.367188 3.027344 2.316407 5.628906 5.121094 6.828125 2.804688 1.195313 6.035156.808594 8.472656-1.023437l34.132813-25.597657c2.148437-1.613281 3.414063-4.140625 3.414063-6.828125s-1.265626-5.214844-3.414063-6.828125zm0 0"/><path d="m401.066406 290.132812h-290.132812c-4.714844 0-8.535156 3.820313-8.535156 8.535157 0 4.710937 3.820312 8.53125 8.535156 8.53125h290.132812c4.714844 0 8.535156-3.820313 8.535156-8.53125 0-4.714844-3.820312-8.535157-8.535156-8.535157zm0 0"/><path d="m42.667969 375.464844h68.265625c4.710937 0 8.53125-3.820313 8.53125-8.53125 0-4.714844-3.820313-8.535156-8.53125-8.535156h-68.265625c-4.714844 0-8.535157 3.820312-8.535157 8.535156 0 4.710937 3.820313 8.53125 8.535157 8.53125zm0 0"/><path d="m145.066406 375.464844h128c4.714844 0 8.535156-3.820313 8.535156-8.53125 0-4.714844-3.820312-8.535156-8.535156-8.535156h-128c-4.710937 0-8.53125 3.820312-8.53125 8.535156 0 4.710937 3.820313 8.53125 8.53125 8.53125zm0 0"/><path d="m307.199219 375.464844h34.132812c4.714844 0 8.535157-3.820313 8.535157-8.53125 0-4.714844-3.820313-8.535156-8.535157-8.535156h-34.132812c-4.710938 0-8.53125 3.820312-8.53125 8.535156 0 4.710937 3.820312 8.53125 8.53125 8.53125zm0 0"/><path d="m375.464844 375.464844h34.136718c4.710938 0 8.53125-3.820313 8.53125-8.53125 0-4.714844-3.820312-8.535156-8.53125-8.535156h-34.136718c-4.710938 0-8.53125 3.820312-8.53125 8.535156 0 4.710937 3.820312 8.53125 8.53125 8.53125zm0 0"/><path d="m443.734375 375.464844h25.597656c4.714844 0 8.535157-3.820313 8.535157-8.53125 0-4.714844-3.820313-8.535156-8.535157-8.535156h-25.597656c-4.714844 0-8.535156 3.820312-8.535156 8.535156 0 4.710937 3.820312 8.53125 8.535156 8.53125zm0 0"/><path d="m469.332031 392.535156h-68.265625c-4.710937 0-8.53125 3.820313-8.53125 8.53125 0 4.714844 3.820313 8.535156 8.53125 8.535156h68.265625c4.714844 0 8.535157-3.820312 8.535157-8.535156 0-4.710937-3.820313-8.53125-8.535157-8.53125zm0 0"/><path d="m230.398438 401.066406c0 4.714844 3.820312 8.535156 8.535156 8.535156h128c4.710937 0 8.53125-3.820312 8.53125-8.535156 0-4.710937-3.820313-8.53125-8.53125-8.53125h-128c-4.714844 0-8.535156 3.820313-8.535156 8.53125zm0 0"/><path d="m204.800781 409.601562c4.710938 0 8.53125-3.820312 8.53125-8.535156 0-4.710937-3.820312-8.53125-8.53125-8.53125h-34.132812c-4.714844 0-8.535157 3.820313-8.535157 8.53125 0 4.714844 3.820313 8.535156 8.535157 8.535156zm0 0"/><path d="m93.867188 401.066406c0 4.714844 3.820312 8.535156 8.53125 8.535156h34.136718c4.710938 0 8.53125-3.820312 8.53125-8.535156 0-4.710937-3.820312-8.53125-8.53125-8.53125h-34.136718c-4.710938 0-8.53125 3.820313-8.53125 8.53125zm0 0"/><path d="m42.667969 409.601562h25.597656c4.714844 0 8.535156-3.820312 8.535156-8.535156 0-4.710937-3.820312-8.53125-8.535156-8.53125h-25.597656c-4.714844 0-8.535157 3.820313-8.535157 8.53125 0 4.714844 3.820313 8.535156 8.535157 8.535156zm0 0"/><path d="m42.667969 443.734375h68.265625c4.710937 0 8.53125-3.820313 8.53125-8.535156 0-4.710938-3.820313-8.53125-8.53125-8.53125h-68.265625c-4.714844 0-8.535157 3.820312-8.535157 8.53125 0 4.714843 3.820313 8.535156 8.535157 8.535156zm0 0"/><path d="m281.601562 435.199219c0-4.710938-3.820312-8.53125-8.535156-8.53125h-128c-4.710937 0-8.53125 3.820312-8.53125 8.53125 0 4.714843 3.820313 8.535156 8.53125 8.535156h128c4.714844 0 8.535156-3.820313 8.535156-8.535156zm0 0"/><path d="m341.332031 443.734375c4.714844 0 8.535157-3.820313 8.535157-8.535156 0-4.710938-3.820313-8.53125-8.535157-8.53125h-34.132812c-4.710938 0-8.53125 3.820312-8.53125 8.53125 0 4.714843 3.820312 8.535156 8.53125 8.535156zm0 0"/><path d="m418.132812 435.199219c0-4.710938-3.820312-8.53125-8.53125-8.53125h-34.136718c-4.710938 0-8.53125 3.820312-8.53125 8.53125 0 4.714843 3.820312 8.535156 8.53125 8.535156h34.136718c4.710938 0 8.53125-3.820313 8.53125-8.535156zm0 0"/><path d="m469.332031 426.667969h-25.597656c-4.714844 0-8.535156 3.820312-8.535156 8.53125 0 4.714843 3.820312 8.535156 8.535156 8.535156h25.597656c4.714844 0 8.535157-3.820313 8.535157-8.535156 0-4.710938-3.820313-8.53125-8.535157-8.53125zm0 0"/><path d="m469.332031 460.800781h-68.265625c-4.710937 0-8.53125 3.820313-8.53125 8.53125 0 4.714844 3.820313 8.535157 8.53125 8.535157h68.265625c4.714844 0 8.535157-3.820313 8.535157-8.535157 0-4.710937-3.820313-8.53125-8.535157-8.53125zm0 0"/><path d="m366.933594 460.800781h-128c-4.714844 0-8.535156 3.820313-8.535156 8.53125 0 4.714844 3.820312 8.535157 8.535156 8.535157h128c4.710937 0 8.53125-3.820313 8.53125-8.535157 0-4.710937-3.820313-8.53125-8.53125-8.53125zm0 0"/><path d="m204.800781 460.800781h-34.132812c-4.714844 0-8.535157 3.820313-8.535157 8.53125 0 4.714844 3.820313 8.535157 8.535157 8.535157h34.132812c4.710938 0 8.53125-3.820313 8.53125-8.535157 0-4.710937-3.820312-8.53125-8.53125-8.53125zm0 0"/><path d="m136.535156 460.800781h-34.136718c-4.710938 0-8.53125 3.820313-8.53125 8.53125 0 4.714844 3.820312 8.535157 8.53125 8.535157h34.136718c4.710938 0 8.53125-3.820313 8.53125-8.535157 0-4.710937-3.820312-8.53125-8.53125-8.53125zm0 0"/><path d="m42.667969 477.867188h25.597656c4.714844 0 8.535156-3.820313 8.535156-8.535157 0-4.710937-3.820312-8.53125-8.535156-8.53125h-25.597656c-4.714844 0-8.535157 3.820313-8.535157 8.53125 0 4.714844 3.820313 8.535157 8.535157 8.535157zm0 0"/></svg>