<?xml version="1.0" encoding="iso-8859-1"?>
<!-- Generator: Adobe Illustrator 21.0.0, SVG Export Plug-In . SVG Version: 6.00 Build 0)  -->
<svg xmlns="http://www.w3.org/2000/svg" xmlns:xlink="http://www.w3.org/1999/xlink" version="1.1" id="Capa_1" x="0px" y="0px" viewBox="0 0 512 512" style="enable-background:new 0 0 512 512;" xml:space="preserve" width="512" height="512">
<g>
	<path d="M245.394,124.394l-90,90c-4.29,4.29-5.573,10.742-3.252,16.347c2.322,5.605,7.792,9.26,13.858,9.26h15v76   c0,8.284,6.716,15,15,15h120c8.284,0,15-6.716,15-15v-76h15c6.067,0,11.537-3.655,13.858-9.26   c2.321-5.605,1.038-12.057-3.252-16.347l-90-90C260.749,118.535,251.251,118.535,245.394,124.394z M301,225v76h-30v-45   c0-8.284-6.716-15-15-15s-15,6.716-15,15v45h-30v-76c0-6.432-4.048-11.919-9.736-14.05L256,156.213l54.736,54.736   C305.048,213.081,301,218.568,301,225z"/>
	<path d="M466,90c-41.355,0-75-33.645-75-75c0-8.284-6.716-15-15-15H136c-8.284,0-15,6.716-15,15c0,41.355-33.645,75-75,75   c-8.284,0-15,6.716-15,15v111.597c0,136.432,90.829,257.668,220.879,294.826c1.347,0.385,2.733,0.577,4.121,0.577   s2.774-0.192,4.121-0.577C390.171,474.266,481,353.029,481,216.597V105C481,96.716,474.284,90,466,90z M451,216.597   c0,121.658-79.971,229.907-195,264.767C140.971,446.504,61,338.255,61,216.597v-97.666c45.917-6.597,82.335-43.015,88.932-88.932   h212.137c6.597,45.917,43.015,82.335,88.932,88.932V216.597z"/>
	<path d="M342.265,68.983c-2.39-5.458-7.783-8.983-13.74-8.983H183.476c-5.958,0-11.351,3.526-13.74,8.983   c-13.698,31.282-38.47,56.054-69.752,69.752c-5.458,2.39-8.983,7.783-8.983,13.74v64.116c0,50.227,15.296,98.936,44.235,140.861   c28.962,41.958,68.921,73.261,115.558,90.524c1.68,0.622,3.443,0.933,5.207,0.933s3.527-0.311,5.207-0.933   c46.637-17.263,86.596-48.565,115.558-90.524C405.704,315.528,421,266.819,421,216.592v-64.116c0-5.958-3.526-11.351-8.983-13.74   C380.735,125.037,355.963,100.265,342.265,68.983z M391,216.592c0,88.645-54.017,168.802-135,201.244   c-80.983-32.442-135-112.599-135-201.244v-54.632c31.022-15.847,56.112-40.937,71.959-71.959h126.081   c15.847,31.022,40.937,56.112,71.959,71.959V216.592z"/>
</g>















</svg>
