<svg height="511pt" viewBox="-26 0 511 511.99975" width="511pt" xmlns="http://www.w3.org/2000/svg"><path d="m240.199219 511.761719c1.652343-.070313 3.304687-.164063 4.957031-.277344 55.484375-3.636719 107.144531-26.96875 146.820312-66.644531 43.316407-43.3125 67.171876-100.898438 67.171876-162.15625 0-33.378906-7.019532-65.5625-20.878907-95.703125-.542969-1.164063-1.082031-2.304688-1.621093-3.425781-1.613282-3.355469-3.222657-6.519532-4.867188-9.589844-5.816406-10.832032-12.632812-21.320313-20.347656-31.304688-1.53125-1.980468-3.105469-3.933594-4.707032-5.871094 9.734376-18.128906 17.171876-32.1875 17.976563-34.261718 3.375-8.703125 5.085937-17.855469 5.085937-27.199219-.003906-41.535156-33.792968-75.328125-75.328124-75.328125-35.933594 0-66.050782 25.296875-73.527344 59.011719-2.382813-.511719-4.824219-.992188-7.351563-1.472657-14.523437-2.78125-29.316406-4.164062-44.105469-4.140624-8.867187.015624-17.777343.53125-26.691406 1.550781h-.003906c-.007812 0-.015625.003906-.027344.003906-52.851562 6.214844-99.734375 30.15625-135.03125 65.457031-1.03125 1.03125-2.054687 2.070313-3.0625 3.121094-29.632812 30.648438-50.171875 68.960938-59.164062 111.351562-.003906.023438-.007813.050782-.011719.074219-3.269531 15.425781-4.984375 31.394531-4.984375 47.726563 0 33.648437 7.136719 66.085937 21.214844 96.421875 2.324218 5.007812 8.265625 7.1875 13.277344 4.859375 5.011718-2.324219 7.1875-8.269532 4.863281-13.28125-12.84375-27.675782-19.355469-57.28125-19.355469-88 0-8.410156.503906-16.71875 1.472656-24.886719l85.320313 85.316406c1.636719 1.640625 2.578125 3.910157 2.578125 6.234375v69.941406c0 4.855469 1.777344 9.535157 5.015625 13.179688l1.9375 2.183594c3.835937 4.308594 9.074219 6.683594 14.75 6.683594 10.960937 0 19.886719-8.875 19.917969-19.800782l13.472656-13.480468c5.375-5.355469 8.457031-12.789063 8.457031-20.382813v-11.691406c0-2.359375.910156-4.570313 2.578125-6.230469l25.792969-25.792969c5.433593-5.449219 8.425781-12.679687 8.425781-20.363281v-12.523438c0-7.585937-3.074219-15.011718-8.4375-20.371093l-26.097656-26.097657c-5.429688-5.445312-12.667969-8.445312-20.382813-8.445312h-22.097656c-7.597656 0-15.023437 3.078125-20.332031 8.40625l-1.230469 1.21875c-1.660156 1.664062-3.871094 2.578125-6.222656 2.578125-2.355469 0-4.570313-.917969-6.234375-2.582031l-15.570313-15.582032c-1.636719-1.632812-2.578125-3.902343-2.578125-6.222656v-17.175781c0-2.359375.921875-4.578125 2.566406-6.234375 1.675782-1.667969 3.898438-2.585938 6.253907-2.585938 7.59375 0 15.019531-3.078124 20.363281-8.4375l18.382812-18.382812c5.445313-5.429688 8.445313-12.667969 8.445313-20.382812v-14.261719c0-7.597657-3.078125-15.023438-8.433594-20.359375l-9.296875-9.308594c-1.636718-1.632812-2.578125-3.902344-2.578125-6.21875v-14.191406c24.816407-15.945313 53.304688-26.816406 84.105469-31.066406l35.742188 30.078124c3.957031 3.332032 5.210937 9.058594 3.035156 13.75-1.464844 3.152344-4.253906 4.867188-6.984375 6.769532-2.878907 2-5.398438 4.464844-7.488281 7.324218-3.253907 4.460938-2.273438 10.71875 2.1875 13.972657 4.460937 3.257812 10.71875 2.277343 13.972656-2.183594 1.515625-2.078125 3.761718-3.398437 5.835937-4.847656 4.164063-2.886719 7.613281-6.792969 9.972657-11.308594 2.347656-4.492187 3.585937-9.550781 3.585937-14.625 0-9.335937-4.09375-18.140625-11.234375-24.152344l-19.898438-16.742187c10.070313-.015625 20.148438.671875 30.117188 2.097656 4.777344.683594 9.527344 1.523438 14.253906 2.503906 1.144532.234375 2.285156.480469 3.425782.738282.269531.0625 1.71875.222656 1.871093.433593.234375.335938.101563 1.5625.132813 1.960938.183594 2.328125.453125 4.652343.851562 6.953125.855469 4.933594 2.148438 9.886718 4.035156 14.53125.382813.976562 1.351563 3.1875 13.054688 25.050781 14.261719 26.6875 36.550781 67.730469 48.367188 89.449219 1.75 3.21875 5.121093 5.21875 8.78125 5.21875 1.375 0 2.710937-.28125 3.933593-.804688 2.035157-.867187 3.761719-2.40625 4.855469-4.414062.066406-.125 2.132812-3.925782 5.464844-10.054688 7.871094-14.488281 18.121094-33.375 27.699218-51.125 6.707032 8.789063 12.648438 17.996094 17.742188 27.484375.570312 1.058594 1.132812 2.132813 1.691406 3.222657.175782.339843.351563.691406.527344 1.035156.394531.777344.789062 1.5625 1.183594 2.363281.085937.175781.171875.351563.257812.527344-2.15625 4.347656-3.308594 9.179687-3.308594 14.070312v28.882813c0 3.042968-1.238281 6.027344-3.390624 8.183594l-15.578126 15.582031c-5.96875 5.953125-9.257812 13.882812-9.257812 22.324219v45.839843c0 3.085938-1.203125 5.996094-3.386719 8.183594l-20.671875 20.671875c-2.152344 2.152344-5.132812 3.386719-8.175781 3.386719h-.425781c-3.039063 0-6.019532-1.234375-8.171875-3.386719l-5.003907-5.003906c-2.15625-2.164063-3.394531-5.148438-3.394531-8.191406v-64.796876c0-8.445312-3.285156-16.375-9.246093-22.320312l-16.015626-16.011719c-5.960937-5.964843-13.890624-9.246093-22.328124-9.246093h-23.867188c-3.089844 0-5.996094-1.207032-8.1875-3.398438l-14.941406-14.941406c-.265625-.265625-.523438-.550782-.765625-.847656-3.503907-4.269532-9.804688-4.890626-14.074219-1.386719-4.269531 3.5-4.894531 9.800781-1.390625 14.074219.65625.800781 1.359375 1.574218 2.089844 2.304687l14.941406 14.941406c5.964844 5.96875 13.894531 9.253907 22.324219 9.253907h23.871094c3.09375 0 6 1.203124 8.183593 3.386718l16.023438 16.023438c2.179687 2.175781 3.378906 5.074218 3.378906 8.167968v64.796876c0 8.421874 3.28125 16.347656 9.246094 22.328124l5.011719 5.011719c5.878906 5.875 14.011718 9.246094 22.316406 9.246094h.425781c8.308594 0 16.441406-3.371094 22.316406-9.246094l20.679688-20.679687c5.957031-5.972656 9.238281-13.898438 9.238281-22.320313v-45.835937c0-3.09375 1.199219-5.992188 3.386719-8.175782l15.601562-15.597656c5.023438-5.039062 8.132813-11.46875 8.988281-18.410156 3.246094 14.734375 4.886719 29.851562 4.886719 45.25 0 55.914062-21.773437 108.480469-61.308593 148.011719-11.710938 11.710937-24.570313 21.847656-38.316407 30.335937l-20.695312-20.695312c-5.6875-5.6875-13.566407-8.953125-21.609375-8.953125h-13.339844c-8.164062 0-15.835938 3.183593-21.609375 8.953125l-14.761719 14.761718c-1.992187 1.996094-4.648437 3.09375-7.476562 3.09375h-47.503906c-8.042969 0-15.917969 3.261719-21.605469 8.953126l-12.4375 12.433593c-28.464844-10.292969-54.566407-26.792969-76.613281-48.824219-3.910157-3.90625-10.238282-3.898437-14.144532.003907-3.902344 3.910156-3.898437 10.242187.007813 14.144531 35.722656 35.695312 81.152343 58.144531 130.328125 64.917969 13.945312 1.925781 28.078125 2.574219 42.140625 1.9375zm114.261719-491.761719c30.507812 0 55.324218 24.820312 55.324218 55.328125 0 6.816406-1.238281 13.496094-3.683594 19.847656-1.195312 2.648438-9.421874 18.085938-20.191406 38.085938-.007812.019531-.023437.035156-.03125.054687-10.660156 19.808594-23.210937 42.960938-31.414062 58.078125-5.621094-10.351562-13.273438-24.457031-20.933594-38.636719-.917969-1.695312-1.796875-3.324218-2.660156-4.921874-22.496094-41.664063-27.28125-50.964844-28.050782-52.667969-2.136718-5.546875-3.351562-11.351563-3.621093-17.285157-.039063-.847656-.058594-1.699218-.058594-2.550781 0-.160156.003906-.328125.007813-.488281 0-.050781 0-.101562.003906-.15625.011718-.039062.027344-.078125.039062-.117188.515625-1.667968.566406-3.367187.238282-4.960937 2.871093-27.832031 26.457031-49.609375 55.03125-49.609375zm-237.414063 136.507812v14.265626c0 2.359374-.914063 4.566406-2.578125 6.230468l-18.402344 18.402344c-1.628906 1.632812-3.890625 2.570312-6.210937 2.570312-7.6875 0-14.925781 2.992188-20.394531 8.445313-5.433594 5.449219-8.425782 12.683594-8.425782 20.371094v17.179687c0 7.597656 3.082032 15.027344 8.445313 20.371094l15.558593 15.574219c5.445313 5.441406 12.683594 8.441406 20.378907 8.441406 7.699219 0 14.9375-3 20.335937-8.414063l1.238282-1.222656c1.625-1.632812 3.890624-2.570312 6.210937-2.570312h22.097656c2.359375 0 4.570313.914062 6.230469 2.578125l26.109375 26.109375c1.636719 1.636718 2.574219 3.90625 2.574219 6.230468v12.523438c0 2.347656-.917969 4.566406-2.578125 6.226562l-25.769531 25.773438c-5.449219 5.433594-8.449219 12.671875-8.449219 20.386719v11.691406c0 2.320313-.9375 4.585937-2.589844 6.234375l-13.519531 13.53125c-3.636719 3.632812-5.6875 8.425781-5.8125 13.613281l-1.625-1.828125v-69.878906c0-7.585938-3.074219-15.011719-8.4375-20.371094l-95.179688-95.179687c8.472656-35.386719 25.941406-67.433594 49.992188-93.417969 1.628906-1.753906 3.289062-3.480469 4.972656-5.179688 4.917969-4.9375 10.09375-9.648437 15.523438-14.109374.125 7.433593 3.1875 14.667968 8.4375 19.902343l9.296874 9.308594c1.636719 1.628906 2.570313 3.890625 2.570313 6.210937zm63.199219 329.589844 4.8125-4.8125c1.964844-1.964844 4.6875-3.09375 7.464844-3.09375h47.507812c8.167969 0 15.847656-3.179687 21.621094-8.953125l14.757812-14.757812c1.996094-1.996094 4.644532-3.09375 7.464844-3.09375h13.34375c2.777344 0 5.5 1.125 7.464844 3.09375l16.558594 16.558593c-23.015626 11.171876-48.019532 18.027344-73.617188 20.207032-14.324219 1.023437-28.574219.929687-42.851562-.722656-8.269532-.988282-16.457032-2.464844-24.527344-4.425782zm0 0"/><path d="m354.460938 111.136719c19.742187 0 35.808593-16.0625 35.808593-35.808594 0-19.742187-16.066406-35.808594-35.808593-35.808594-19.742188 0-35.804688 16.066407-35.804688 35.808594 0 19.746094 16.0625 35.808594 35.804688 35.808594zm0-51.617188c8.714843 0 15.808593 7.09375 15.808593 15.808594s-7.09375 15.808594-15.808593 15.808594c-8.714844 0-15.808594-7.09375-15.808594-15.808594.003906-8.714844 7.09375-15.808594 15.808594-15.808594zm0 0"/><path d="m220.761719 182.210938c2.371093 3.519531 6.796875 5.21875 10.90625 4.109374 3.984375-1.074218 6.941406-4.574218 7.363281-8.675781.421875-4.09375-1.855469-8.132812-5.535156-9.945312-3.804688-1.867188-8.480469-1.097657-11.484375 1.894531-3.34375 3.328125-3.859375 8.699219-1.25 12.617188zm0 0"/><path d="m59.410156 404.710938c-1.636718-3.925782-5.6875-6.457032-9.941406-6.148438-4.203125.308594-7.847656 3.308594-8.941406 7.382812-1.0625 3.964844.480468 8.339844 3.832031 10.722657 3.386719 2.40625 7.996094 2.472656 11.4375.144531 3.875-2.621094 5.414063-7.785156 3.613281-12.101562zm0 0"/></svg>