<?xml version="1.0" encoding="iso-8859-1"?>
<!-- Generator: Adobe Illustrator 19.0.0, SVG Export Plug-In . SVG Version: 6.00 Build 0)  -->
<svg version="1.1" id="Capa_1" xmlns="http://www.w3.org/2000/svg" xmlns:xlink="http://www.w3.org/1999/xlink" x="0px" y="0px"
	 viewBox="0 0 480 480" style="enable-background:new 0 0 480 480;" xml:space="preserve">
<g>
	<g>
		<g>
			<path d="M472,0H248c-4.418,0-8,3.582-8,8v48c0,4.418,3.582,8,8,8h24v120c0,4.418,3.582,8,8,8h160c4.418,0,8-3.582,8-8V64h24
				c4.418,0,8-3.582,8-8V8C480,3.582,476.418,0,472,0z M382.528,16c-4.335,12.442-17.935,19.014-30.376,14.68
				c-6.877-2.396-12.284-7.802-14.68-14.68H382.528z M464,48h-24c-4.418,0-8,3.582-8,8v120H288V56c0-4.418-3.582-8-8-8h-24V16h64.8
				c4.396,21.65,25.51,35.636,47.16,31.24c15.741-3.196,28.044-15.499,31.24-31.24H464V48z"/>
			<rect x="384" y="56" width="32" height="16"/>
			<path d="M232,288H8c-4.418,0-8,3.582-8,8v48c0,4.418,3.582,8,8,8h24v120c0,4.418,3.582,8,8,8h160c4.418,0,8-3.582,8-8V352h24
				c4.418,0,8-3.582,8-8v-48C240,291.582,236.418,288,232,288z M142.528,304c-4.335,12.442-17.935,19.014-30.376,14.68
				c-6.877-2.396-12.284-7.802-14.68-14.68H142.528z M224,336h-24c-4.418,0-8,3.582-8,8v120H48V344c0-4.418-3.582-8-8-8H16v-32h64.8
				c4.396,21.65,25.51,35.636,47.16,31.24c15.741-3.196,28.044-15.499,31.24-31.24H224V336z"/>
			<rect x="144" y="344" width="32" height="16"/>
			<path d="M240,208v32c0,4.418,3.582,8,8,8h32v16h-40v16h48c4.418,0,8-3.582,8-8v-32c0-4.418-3.582-8-8-8h-32v-16h40v-16h-48
				C243.582,200,240,203.582,240,208z"/>
			<path d="M163.56,262.656l24,16c2.688,1.794,6.192,1.794,8.88,0l24-16c2.225-1.484,3.56-3.982,3.56-6.656v-56h-16v51.72l-16,10.68
				l-16-10.664V200h-16v56C160,258.674,161.335,261.172,163.56,262.656z"/>
			<rect x="16" y="256" width="16" height="16"/>
			<rect x="48" y="256" width="16" height="16"/>
			<rect x="80" y="256" width="16" height="16"/>
			<rect x="352" y="208" width="16" height="16"/>
			<rect x="384" y="208" width="16" height="16"/>
			<rect x="416" y="208" width="16" height="16"/>
		</g>
	</g>
</g>
<g>
</g>
<g>
</g>
<g>
</g>
<g>
</g>
<g>
</g>
<g>
</g>
<g>
</g>
<g>
</g>
<g>
</g>
<g>
</g>
<g>
</g>
<g>
</g>
<g>
</g>
<g>
</g>
<g>
</g>
</svg>
